 
http://www.imdb.com/title/tt2250234/


A secret cabal, The Shadow, works to bring about the return of Goth Azul - the Undead God - in the rich world of SAGA, populated by elves, orcs, dwarves and dragons. 



Director:
 John Lyde 

Writers:
 Jason Faller, Kynan Griffin 

Stars:
 Danielle Chuchran, Richard McWilliams, Paul D. Hunt

Genres:
  Action |  Fantasy 

Country:
 USA 

Language:
 English 



Format                                   : AVI
Format/Info                              : Audio Video Interleave
File size                                : 1.51 GiB
Duration                                 : 1h 45mn
Overall bit rate                         : 2 049 Kbps
Writing application                      : VirtualDubMod 1.5.10.2 (build 2540/release)
Writing library                          : VirtualDubMod build 2540/release

Video
ID                                       : 0
Format                                   : MPEG-4 Visual
Format profile                           : Advanced Simple@L5
Format settings, BVOP                    : 2
Format settings, QPel                    : No
Format settings, GMC                     : No warppoints
Format settings, Matrix                  : Default (H.263)
Muxing mode                              : Packed bitstream
Codec ID                                 : XVID
Codec ID/Hint                            : XviD
Duration                                 : 1h 45mn
Bit rate                                 : 1 592 Kbps
Width                                    : 720 pixels
Height                                   : 400 pixels
Display aspect ratio                     : 16:9
Original display aspect ratio            : 16:9
Frame rate                               : 23.976 fps
Color space                              : YUV
Chroma subsampling                       : 4:2:0
Bit depth                                : 8 bits
Scan type                                : Progressive
Compression mode                         : Lossy
Bits/(Pixel*Frame)                       : 0.231
Stream size                              : 1.17 GiB (78%)
Writing library                          : XviD 64

Audio
ID                                       : 1
Format                                   : AC-3
Format/Info                              : Audio Coding 3
Mode extension                           : CM (complete main)
Format settings, Endianness              : Big
Codec ID                                 : 2000
Duration                                 : 1h 45mn
Bit rate mode                            : Constant
Bit rate                                 : 448 Kbps
Channel(s)                               : 6 channels
Channel positions                        : Front: L C R, Side: L R, LFE
Sampling rate                            : 48.0 KHz
Bit depth                                : 16 bits
Compression mode                         : Lossy
Stream size                              : 337 MiB (22%)
Alignment                                : Split accross interleaves
Interleave, duration                     : 42 ms (1.00 video frame)
Interleave, preload duration             : 500 ms




screens


    	http://addpix.net/viewer.php?file=28330936981587488590.jpg
    	http://addpix.net/viewer.php?file=80482176286267862288.jpg
    	http://addpix.net/viewer.php?file=19071838626729620222.jpg
    	http://addpix.net/viewer.php?file=30405864998850938635.jpg
    	http://addpix.net/viewer.php?file=12586181948499934774.jpg
    	http://addpix.net/viewer.php?file=11051601476146585662.jpg